# xmcd
#
# Track frame offsets: 
#        150
#        15453
#        37861
#        52560
#        68470
#        83482
#        96315
#        113925
#        130396
#        145574
#        157963
#        174300
#
# Disc length: 2465 seconds
#
# Revision: 0
# Processed by: cddbd v1.5PL3 Copyright (c) Steve Scherf et al.
# Submitted via: ExactAudioCopy v0.95a4
#
DISCID=80099f0c
DTITLE=Ed Bruce - 12 Classics
DYEAR=2003
DGENRE=Country
TTITLE0=Mammas Don't Let Your Babies Grow Up To Be Cowboys
TTITLE1=The Last Cowboy Song
TTITLE2=Girls, Women And Ladies
TTITLE3=(When You Fall In Love) Everything's A Waltz
TTITLE4=You're The Best Break This Old Heart Ever Had
TTITLE5=Ever, Never Lovin' You
TTITLE6=My First Taste Of Texas
TTITLE7=After All
TTITLE8=You Turn Me On (Like A Radio)
TTITLE9=Nights
TTITLE10=In The Garden
TTITLE11=The Lord's Prayer
EXTD=
EXTT0=
EXTT1=
EXTT2=
EXTT3=
EXTT4=
EXTT5=
EXTT6=
EXTT7=
EXTT8=
EXTT9=
EXTT10=
EXTT11=
PLAYORDER=
